<?xml version="1.0" encoding="UTF-8"?>
<svg width="50px" height="60px" viewBox="0 0 50 60" version="1.1" xmlns="http://www.w3.org/2000/svg" xmlns:xlink="http://www.w3.org/1999/xlink">
    <!-- Generator: Sketch 58 (84663) - https://sketch.com -->
    <title>Calculator</title>
    <desc>Created with Sketch.</desc>
    <g id="Page-3" stroke="none" stroke-width="1" fill="none" fill-rule="evenodd">
        <g id="Calculator" fill="#008034" fill-rule="nonzero">
            <path d="M45.6873673,0 L4.3126327,0 C1.93471338,0 0,1.88129032 0,4.19354839 L0,55.8064516 C0,58.1187097 1.93471338,60 4.3126327,60 L45.6873673,60 C48.0652866,60 50,58.1187097 50,55.8064516 L50,4.19354839 C50,1.88129032 48.0652866,0 45.6873673,0 Z M47.0095539,54.8869111 C47.0095539,56.0877046 46.0131582,57.0645159 44.7882898,57.0645159 L5.21170996,57.0645159 C3.98684147,57.0645159 2.99044586,56.0877046 2.99044586,54.8869111 L2.99044586,5.11308861 C2.99044586,3.91229514 3.98684147,2.93548387 5.21170996,2.93548387 L44.7882898,2.93548387 C46.0131582,2.93548387 47.0095539,3.91229514 47.0095539,5.11308861 L47.0095539,54.8869111 Z" id="Shape"></path>
            <path d="M42.3303741,5 L6.67029272,5 C5.74962737,5 5,5.71168809 5,6.58575778 L5,18.4142422 C5,19.2883119 5.74962737,20 6.67029272,20 L42.3297059,20 C43.2503713,20 44,19.2883119 44,18.4142422 L44,6.58575778 C44.0006668,5.71168809 43.2510394,5 42.3303741,5 Z M40.9963153,17.0970903 L8.00435126,17.0970903 L8.00435126,7.90290934 L40.9956853,7.90290934 L40.9956853,17.0970903 L40.9963153,17.0970903 Z" id="Shape"></path>
            <path d="M15.3816866,22 L7.61831342,22 C6.72629906,22 6,22.7383738 6,23.6452179 L6,29.3547821 C6,30.2616262 6.72629906,31 7.61831342,31 L15.3816866,31 C16.2737009,31 17,30.2616262 17,29.3547821 L17,23.6452179 C17,22.7383738 16.2743483,22 15.3816866,22 Z M14.0580241,28.0257385 L8.94197611,28.0257385 L8.94197611,24.9742615 L14.0580241,24.9742615 L14.0580241,28.0257385 Z" id="Shape"></path>
            <path d="M29.3816866,22 L21.6183134,22 C20.7262991,22 20,22.7383738 20,23.6452179 L20,29.3547821 C20,30.2616262 20.7262991,31 21.6183134,31 L29.3816866,31 C30.2737009,31 31,30.2616262 31,29.3547821 L31,23.6452179 C31,22.7383738 30.2743483,22 29.3816866,22 Z M28.0580241,28.0257385 L22.9419761,28.0257385 L22.9419761,24.9742615 L28.0580241,24.9742615 L28.0580241,28.0257385 Z" id="Shape"></path>
            <path d="M42.3816866,22 L34.6183134,22 C33.7262991,22 33,22.7383738 33,23.6452179 L33,29.3547821 C33,30.2616262 33.7262991,31 34.6183134,31 L42.3816866,31 C43.2737009,31 44,30.2616262 44,29.3547821 L44,23.6452179 C44,22.7383738 43.2743483,22 42.3816866,22 Z M41.0580241,28.0257385 L35.9419761,28.0257385 L35.9419761,24.9742615 L41.0580241,24.9742615 L41.0580241,28.0257385 Z" id="Shape"></path>
            <path d="M42.3816866,34 L34.6183134,34 C33.7262991,34 33,34.7383738 33,35.6452179 L33,41.3547821 C33,42.2616262 33.7262991,43 34.6183134,43 L42.3816866,43 C43.2737009,43 44,42.2616262 44,41.3547821 L44,35.6452179 C44,34.7383738 43.2743483,34 42.3816866,34 Z M41.0580241,40.0257385 L35.9419761,40.0257385 L35.9419761,36.9742615 L41.0580241,36.9742615 L41.0580241,40.0257385 Z" id="Shape"></path>
            <path d="M29.3816866,34 L21.6183134,34 C20.7262991,34 20,34.7383738 20,35.6452179 L20,41.3547821 C20,42.2616262 20.7262991,43 21.6183134,43 L29.3816866,43 C30.2737009,43 31,42.2616262 31,41.3547821 L31,35.6452179 C31,34.7383738 30.2743483,34 29.3816866,34 Z M28.0580241,40.0257385 L22.9419761,40.0257385 L22.9419761,36.9742615 L28.0580241,36.9742615 L28.0580241,40.0257385 Z" id="Shape"></path>
            <path d="M15.3816866,34 L7.61831342,34 C6.72629906,34 6,34.7383738 6,35.6452179 L6,41.3547821 C6,42.2616262 6.72629906,43 7.61831342,43 L15.3816866,43 C16.2737009,43 17,42.2616262 17,41.3547821 L17,35.6452179 C17,34.7383738 16.2743483,34 15.3816866,34 Z M14.0580241,40.0257385 L8.94197611,40.0257385 L8.94197611,36.9742615 L14.0580241,36.9742615 L14.0580241,40.0257385 Z" id="Shape"></path>
            <path d="M15.3816866,46 L7.61831342,46 C6.72629906,46 6,46.7383738 6,47.6452179 L6,53.3547821 C6,54.2616262 6.72629906,55 7.61831342,55 L15.3816866,55 C16.2737009,55 17,54.2616262 17,53.3547821 L17,47.6452179 C17,46.7383738 16.2743483,46 15.3816866,46 Z M14.0580241,52.0257385 L8.94197611,52.0257385 L8.94197611,48.9742615 L14.0580241,48.9742615 L14.0580241,52.0257385 Z" id="Shape"></path>
            <path d="M42.4084058,46 L21.5922298,46 C20.7145927,46 20,46.7383738 20,47.6452179 L20,53.3547821 C20,54.2616262 20.7145927,55 21.5922298,55 L42.4077689,55 C43.285406,55 44,54.2616262 44,53.3547821 L44,47.6452179 C44.0006356,46.7383738 43.2860429,46 42.4084058,46 Z M41.0899598,52.0257385 L22.9106758,52.0257385 L22.9106758,48.9742615 L41.089386,48.9742615 L41.089386,52.0257385 L41.0899598,52.0257385 Z" id="Shape"></path>
        </g>
    </g>
</svg>