<?xml version="1.0" encoding="UTF-8"?>
<svg width="64px" height="60px" viewBox="0 0 64 60" version="1.1" xmlns="http://www.w3.org/2000/svg" xmlns:xlink="http://www.w3.org/1999/xlink">
    <!-- Generator: Sketch 58 (84663) - https://sketch.com -->
    <title>Account</title>
    <desc>Created with Sketch.</desc>
    <g id="Page-3" stroke="none" stroke-width="1" fill="none" fill-rule="evenodd">
        <path d="M32,0 C42.6666667,0 51.5918367,8.45070423 51.5918367,19.0140845 C51.5918367,25.3521127 48.3265306,31.056338 43.1020408,34.4366197 C54.2040816,38.4507042 62.4761905,48.1690141 64,60 L58.3401361,60 C56.5986395,47.3239437 45.2789116,37.8169014 32,37.8169014 C18.7210884,37.8169014 7.40136054,47.3239437 5.65986395,60 L0,60 C1.52380952,48.1690141 9.79591837,38.4507042 20.8979592,34.4366197 C15.6734694,31.056338 12.4081633,25.3521127 12.4081633,19.0140845 C12.4081633,8.45070423 21.3333333,0 32,0 Z M32,5.28169014 C24.1632653,5.28169014 18.0680272,11.4084507 18.0680272,19.0140845 C18.0680272,26.4084507 24.1632653,32.5352113 32,32.5352113 C39.8367347,32.5352113 45.9319728,26.4084507 45.9319728,19.0140845 C45.9319728,11.4084507 39.8367347,5.28169014 32,5.28169014 Z" id="Account" fill="#008034" fill-rule="nonzero"></path>
    </g>
</svg>