<?xml version="1.0" encoding="UTF-8"?>
<svg width="71px" height="71px" viewBox="0 0 71 71" version="1.1" xmlns="http://www.w3.org/2000/svg" xmlns:xlink="http://www.w3.org/1999/xlink">
    <!-- Generator: Sketch 58 (84663) - https://sketch.com -->
    <title>Phone</title>
    <desc>Created with Sketch.</desc>
    <g id="Page-3" stroke="none" stroke-width="1" fill="none" fill-rule="evenodd">
        <g id="Phone" transform="translate(3.000000, 3.000000)" stroke="#008034" stroke-width="6">
            <path d="M18.2685407,3.03673619 L23.4903069,13.2564987 C24.7957485,15.8657998 23.9254541,19.1274261 21.5321446,20.6495184 L18.7036879,22.6064942 C17.3982463,23.4762612 16.9630991,24.9983535 17.6158199,26.303004 C21.9672918,35.0006743 30.0175147,43.0460192 38.7204585,47.3948543 C40.0259,48.0471796 41.5489152,47.6122961 42.4192095,46.3076455 L44.3773719,43.4809027 C45.900387,41.0890434 49.1639909,40.2192764 51.7748741,41.5239269 L62.0008329,46.7425291 C63.5238481,47.6122961 64.3941425,48.9169466 64.8292897,50.4390389 C65.2644368,52.1785729 64.8292897,53.918107 63.9589953,55.2227575 C62.6535537,56.9622916 61.3481122,58.4843838 59.825097,60.0064761 C54.3857572,64.7901948 47.2058286,66.5297288 40.6786208,63.4855442 C22.402439,55.4401993 9.56559696,42.6111357 1.51537401,24.3460282 C-1.5306563,17.8227756 0.209932451,10.6471976 4.9965515,5.21115375 C6.51956666,3.68906146 8.04258181,2.38441093 9.78317055,1.07976039 C11.0886121,-0.00744838301 12.8292009,-0.224890139 14.352216,0.209993372 C16.0928048,0.644876884 17.3982463,1.51464391 18.2685407,3.03673619 Z" id="Path"></path>
        </g>
    </g>
</svg>