<?xml version="1.0" encoding="UTF-8"?>
<svg width="71px" height="60px" viewBox="0 0 71 60" version="1.1" xmlns="http://www.w3.org/2000/svg" xmlns:xlink="http://www.w3.org/1999/xlink">
    <!-- Generator: Sketch 58 (84663) - https://sketch.com -->
    <title>Cart</title>
    <desc>Created with Sketch.</desc>
    <g id="Page-3" stroke="none" stroke-width="1" fill="none" fill-rule="evenodd">
        <path d="M2.35377597,1.0246164e-06 C1.0537855,1.0246164e-06 0,0.980796137 0,2.19066002 C0,3.40052391 1.0537855,4.381318 2.35377597,4.381318 L9.85643701,4.381318 L17.9475419,39.911052 C18.2676554,41.2485217 19.2094797,42.361668 20.3993919,42.3529415 L59.6289913,42.3529415 C60.8724911,42.3688242 62.0162654,41.3195721 62.0162654,40.1621014 C62.0162654,39.0046308 60.8724911,37.9550865 59.6289913,37.9714434 L22.3118348,37.9714434 L21.3065371,33.5900545 L62.7673553,33.5900545 C63.8212193,33.5827523 64.816945,32.8357379 65.0475366,31.8786394 L70.5396805,9.9720597 C70.8457498,8.70069674 69.6593683,7.3115348 68.2594992,7.30219529 L15.3485809,7.30219529 L14.073619,1.73427295 C13.8508733,0.761547785 12.8374943,-0.00102025576 11.76888,1.0246164e-06 L2.35377597,1.0246164e-06 Z M16.6470588,11.5882361 L65.0588235,11.5882361 L60.6297947,28.2352951 L20.6801248,28.2352951 L16.6470588,11.5882361 Z M28.2352941,45.8823532 C24.3619059,45.8823532 21.1764706,49.0677178 21.1764706,52.9411766 C21.1764706,56.8145648 24.3619059,60 28.2352941,60 C32.1086824,60 35.2941176,56.8145648 35.2941176,52.9411766 C35.2941176,49.0677884 32.1086824,45.8823532 28.2352941,45.8823532 Z M52.9411765,45.8823532 C49.0677882,45.8823532 45.8823529,49.0677178 45.8823529,52.9411766 C45.8823529,56.8145648 49.0677882,60 52.9411765,60 C56.8145647,60 60,56.8145648 60,52.9411766 C60,49.0677884 56.8145647,45.8823532 52.9411765,45.8823532 Z M28.2352941,49.4117649 C30.2159118,49.4117649 31.7647059,50.960559 31.7647059,52.9411766 C31.7647059,54.9217942 30.2159118,56.4705883 28.2352941,56.4705883 C26.2548529,56.4705883 24.7058824,54.921706 24.7058824,52.9411766 C24.7058824,50.9606472 26.2548529,49.4117649 28.2352941,49.4117649 Z M52.9411765,49.4117649 C54.9217941,49.4117649 56.4705882,50.960559 56.4705882,52.9411766 C56.4705882,54.9217942 54.9217941,56.4705883 52.9411765,56.4705883 C50.9607353,56.4705883 49.4117647,54.921706 49.4117647,52.9411766 C49.4117647,50.9606472 50.9607353,49.4117649 52.9411765,49.4117649 Z" id="Cart" fill="#008034" fill-rule="nonzero"></path>
    </g>
</svg>