<?xml version="1.0" encoding="UTF-8"?>
<svg width="70px" height="69px" viewBox="0 0 70 69" version="1.1" xmlns="http://www.w3.org/2000/svg" xmlns:xlink="http://www.w3.org/1999/xlink">
    <!-- Generator: Sketch 58 (84663) - https://sketch.com -->
    <title>Chat</title>
    <desc>Created with Sketch.</desc>
    <g id="Page-3" stroke="none" stroke-width="1" fill="none" fill-rule="evenodd">
        <g id="Chat" transform="translate(3.000000, 3.000000)" fill-rule="nonzero">
            <path d="M64,9.78947372 C64,4.42105263 59.52,0 54.08,0 L9.92000004,0 C4.48,0 0,4.42105263 0,9.78947372 L0,38.8421053 C0,44.2105263 4.48,48.6315789 9.92000004,48.6315789 L48.64,48.6315789 L64,60 L64,39.1578947 L64,9.78947372 Z" id="Shape" stroke="#008034" stroke-width="6"></path>
            <path d="M19,28 C17.1999999,28 16,26.5 16,25 C16,23.5 17.5,22 19,22 C20.5,22 22,23.5 22,25 C22,26.5 20.8,28 19,28 Z" id="Shape-path" fill="#008034"></path>
            <path d="M32,28 C30.2,28 29,26.5 29,25 C29,23.5 30.5,22 32,22 C33.8,22 35,23.5 35,25 C35,26.5 33.8,28 32,28 Z" id="Shape-path" fill="#008034"></path>
            <path d="M45,28 C43.2,28 42,26.5 42,25 C42,23.5 43.5,22 45,22 C46.8,22 48,23.5 48,25 C48,26.5 46.5,28 45,28 Z" id="Shape-path" fill="#008034"></path>
        </g>
    </g>
</svg>