<?xml version="1.0" encoding="UTF-8"?>
<svg width="60px" height="60px" viewBox="0 0 60 60" version="1.1" xmlns="http://www.w3.org/2000/svg" xmlns:xlink="http://www.w3.org/1999/xlink">
    <!-- Generator: Sketch 58 (84663) - https://sketch.com -->
    <title>Corporate</title>
    <desc>Created with Sketch.</desc>
    <g id="Page-3" stroke="none" stroke-width="1" fill="none" fill-rule="evenodd">
        <g id="Corporate" fill="#008034" fill-rule="nonzero">
            <g id="noun_corporate_3483587">
                <rect id="Rectangle" x="24" y="10" width="4" height="4"></rect>
                <rect id="Rectangle" x="24" y="19" width="4" height="4"></rect>
                <rect id="Rectangle" x="24" y="28" width="4" height="4"></rect>
                <rect id="Rectangle" x="24" y="38" width="4" height="4"></rect>
                <rect id="Rectangle" x="33" y="10" width="4" height="4"></rect>
                <rect id="Rectangle" x="33" y="19" width="4" height="4"></rect>
                <rect id="Rectangle" x="33" y="28" width="4" height="4"></rect>
                <rect id="Rectangle" x="33" y="38" width="4" height="4"></rect>
                <path d="M57.6923077,55.3846154 L46.1538462,55.3846154 L46.1538462,13.8461538 L50.7692308,13.8461538 L50.7692308,48.4615385 C50.7692308,49.7360417 51.8024198,50.7692308 53.0769231,50.7692308 C54.3514263,50.7692308 55.3846154,49.7360417 55.3846154,48.4615385 L55.3846154,11.5384615 C55.3846154,10.2639583 54.3514263,9.23076923 53.0769231,9.23076923 L46.1538462,9.23076923 L46.1538462,2.30769231 C46.1538462,1.03318904 45.1206571,0 43.8461538,0 L16.1538462,0 C14.8793429,0 13.8461538,1.03318904 13.8461538,2.30769231 L13.8461538,9.23076923 L6.92307692,9.23076923 C5.64857365,9.23076923 4.61538462,10.2639583 4.61538462,11.5384615 L4.61538462,55.3846154 L2.30769231,55.3846154 C1.03318904,55.3846154 0,56.4178044 0,57.6923077 C0,58.966811 1.03318904,60 2.30769231,60 L57.6923077,60 C58.966811,60 60,58.966811 60,57.6923077 C60,56.4178044 58.966811,55.3846154 57.6923077,55.3846154 Z M9.23076923,13.8461538 L13.8461538,13.8461538 L13.8461538,48.4615385 C13.8461538,49.7360417 14.8793429,50.7692308 16.1538462,50.7692308 C17.4283494,50.7692308 18.4615385,49.7360417 18.4615385,48.4615385 L18.4615385,4.61538462 L41.5384615,4.61538462 L41.5384615,55.3846154 L36.9230769,55.3846154 L36.9230769,48.4615385 C36.9230769,47.1870352 35.8898879,46.1538462 34.6153846,46.1538462 L25.3846154,46.1538462 C24.1101121,46.1538462 23.0769231,47.1870352 23.0769231,48.4615385 L23.0769231,55.3846154 L9.23076923,55.3846154 L9.23076923,13.8461538 Z M32.3076923,55.3846154 L27.6923077,55.3846154 L27.6923077,50.7692308 L32.3076923,50.7692308 L32.3076923,55.3846154 Z" id="Shape"></path>
            </g>
        </g>
    </g>
</svg>