<?xml version="1.0" encoding="UTF-8"?>
<svg width="60px" height="60px" viewBox="0 0 60 60" version="1.1" xmlns="http://www.w3.org/2000/svg" xmlns:xlink="http://www.w3.org/1999/xlink">
    <!-- Generator: Sketch 58 (84663) - https://sketch.com -->
    <title>Help</title>
    <desc>Created with Sketch.</desc>
    <g id="Page-3" stroke="none" stroke-width="1" fill="none" fill-rule="evenodd">
        <g id="Help" fill="#008034" fill-rule="nonzero">
            <path d="M30,4.8 C43.9175757,4.8 55.2,16.0824243 55.2,30 C55.2,43.9175757 43.9175757,55.2 30,55.2 C16.0824243,55.2 4.8,43.9175757 4.8,30 C4.8,16.0824243 16.0824243,4.8 30,4.8 M30,0 C13.4314575,0 0,13.4314575 0,30 C0,46.5685425 13.4314575,60 30,60 C46.5685425,60 60,46.5685425 60,30 C60,22.0435053 56.8392948,14.4128879 51.2132034,8.78679656 C45.5871121,3.16070521 37.9564947,0 30,0 Z" id="Shape"></path>
            <path d="M29.9011643,14.0122588 L30.5940105,14.0735527 C32.3094821,14.1769591 33.9883938,14.5930686 35.5401623,15.2994307 C36.926193,15.909092 38.1077459,16.8746028 38.9530712,18.0883033 C39.5969661,19.0442545 39.9948678,20.1322605 40.1142301,21.2633275 C40.2482901,22.2414234 40.1652275,23.2355308 39.8704509,24.1809173 C39.5043063,25.3089304 38.8672118,26.3395336 38.0100306,27.1904479 C37.029499,28.1282477 35.9551602,28.9720045 34.8024095,29.7096273 C34.1608852,30.1325553 33.5899287,30.5738714 32.9868959,31.0151875 C32.4413218,31.4460647 32.0306648,32.012334 31.8000761,32.6517347 C31.6717712,32.9827218 31.5242206,33.3137088 31.3895005,33.6446959 C31.0508232,34.5464081 30.1596555,35.1507482 29.1569962,35.1586553 C28.6027722,35.216767 28.0423691,35.1321136 27.5339399,34.9134797 C26.7526268,34.5487373 26.2083804,33.8409017 26.0776799,33.0194981 C25.8732538,31.8819467 26.1501699,30.713397 26.847509,29.7709213 C27.4026809,28.9955281 28.082514,28.3087524 28.8618951,27.7359637 C29.7022918,27.0801189 30.5683495,26.4549211 31.427992,25.7990763 C32.1413756,25.2773764 32.7389148,24.625201 33.1857684,23.8805772 C33.8955797,22.5884214 33.7181876,21.0146054 32.7367014,19.8964735 C32.2278967,19.3665646 31.5523048,19.0093942 30.8121287,18.8789947 C29.8266818,18.6591972 28.7995958,18.6760439 27.8226258,18.9280298 C26.8088955,19.1925654 25.9644429,19.8630574 25.5067234,20.7668469 C25.205207,21.3062332 24.942182,21.8578784 24.6599114,22.4033941 C24.4528792,22.8159169 24.1729191,23.1912262 23.8323451,23.5128138 C23.2355603,24.0136909 22.4480608,24.2556162 21.657578,24.1809173 C21.176796,24.168955 20.7060209,24.047047 20.2847161,23.8254127 C19.4937824,23.4345059 18.9983821,22.6535177 19.0016677,21.8027139 C18.9688378,20.4490706 19.4215777,19.1254168 20.2847161,18.051527 C21.2825905,16.762746 22.6071646,15.7376477 24.1338615,15.0726433 C25.2854333,14.5504535 26.5183284,14.2109362 27.7841344,14.0674233 L28.5026415,14 L29.9011643,14.0122588 Z" id="Path"></path>
            <path d="M29.2617591,45.7647059 C29.0706479,45.7265141 28.8795367,45.6946876 28.6947959,45.6437653 C26.9532559,45.1883381 25.8338899,43.4961587 26.0970841,41.7167253 C26.3602782,39.9372919 27.9216676,38.6409885 29.7205994,38.7083946 C31.5195313,38.7758008 32.9793717,40.1853101 33.1084503,41.979442 C33.2375289,43.7735739 31.9944705,45.377233 30.2236853,45.7010529 L29.9115371,45.7647059 L29.2617591,45.7647059 Z" id="Path"></path>
        </g>
    </g>
</svg>