<svg id="Layer_1" data-name="Layer 1" xmlns="http://www.w3.org/2000/svg" viewBox="0 0 262.06 120.51"><defs><style>.cls-1{fill:#2eaa60;}</style></defs><path class="cls-1" d="M252.37,19.54h3.74v.74h-1.48V25h-.78v-4.7h-1.48Z"/><path class="cls-1" d="M259.68,23.82h-.54l-1.59-2.5V25h-.78V19.54h.54l2.1,3.32,2.1-3.32h.55V25h-.78V21.32Z"/><path class="cls-1" d="M100.47,58a5.26,5.26,0,0,0-3.86,1.65A5.79,5.79,0,0,0,95,63.93a6,6,0,0,0,1.56,4.3,5.31,5.31,0,0,0,3.91,1.61,5.56,5.56,0,0,0,3.91-1.48A5.68,5.68,0,0,0,106,64a5.73,5.73,0,0,0-1.6-4.43A5.47,5.47,0,0,0,100.47,58Z"/><polygon class="cls-1" points="128.58 66.1 136.13 66.1 132.35 56.47 128.58 66.1"/><path class="cls-1" d="M194.74,57.68a5.58,5.58,0,0,0-3.91,1.52,5.36,5.36,0,0,0-1.56,4.08,5.51,5.51,0,0,0,1.6,4.17,5.26,5.26,0,0,0,3.87,1.61,5.6,5.6,0,0,0,3.9-1.52,5.54,5.54,0,0,0,1.61-4.3,5.11,5.11,0,0,0-1.61-4.17A5.73,5.73,0,0,0,194.74,57.68Z"/><path class="cls-1" d="M35.53,54.29c0-2-1.35-3.25-3.74-3.25h-4v6.55h4C34.18,57.59,35.53,56.34,35.53,54.29Z"/><path class="cls-1" d="M34.44,62.41H27.75v7.21h6.69c2.56,0,4.08-1.35,4.08-3.56S37,62.41,34.44,62.41Z"/><path class="cls-1" d="M252.2,34.42q0-.41,0-.81a.66.66,0,0,0,0-.14c0-.21,0-.42,0-.63a14.74,14.74,0,0,0-3.35-8l-.08-.09c-.1-.12-.2-.24-.31-.35a15,15,0,0,0-8.47-4.81l-.48-.08h0a14.17,14.17,0,0,0-2.33-.19H25.54A19.27,19.27,0,0,1,6.32,0H0V85.64c0,.15,0,.3,0,.45a15.11,15.11,0,0,0,14.46,15.09,5.42,5.42,0,0,0,.65,0H226.56a19.28,19.28,0,0,1,19.24,18,9.18,9.18,0,0,1,.09,1.28h6.31V34.42ZM41.65,72.31a9.78,9.78,0,0,1-6.78,2.35H22.11V46H32.27a9.35,9.35,0,0,1,6.51,2.26,7.12,7.12,0,0,1,2.56,5.56,7,7,0,0,1-2.12,5.34,7.12,7.12,0,0,1,5.08,7.07A7.71,7.71,0,0,1,41.65,72.31Zm24.87-7.12a9.9,9.9,0,1,1-19.79,0v-12h5.86v12.5a4,4,0,1,0,8.07,0V53.17h5.86Zm9.73,9.47H70.39V53.17h5.86ZM76,47.91a3.94,3.94,0,0,1-5.34,0,3.62,3.62,0,0,1,0-5.16,3.94,3.94,0,0,1,5.34,0A3.64,3.64,0,0,1,76,47.91Zm10.2,26.75H80.33V42.1h5.86Zm25.57,0h-5.39V72a8,8,0,0,1-6.9,3.22A9.78,9.78,0,0,1,92,72a11.49,11.49,0,0,1-2.91-8.08,11.38,11.38,0,0,1,2.91-8,9.52,9.52,0,0,1,7.29-3.21,8.5,8.5,0,0,1,6.65,2.56V42.1h5.86Zm28.06,0-1.6-3.74H126.49l-1.6,3.74h-6.3L131.4,45.48h1.95l12.77,29.18Zm28.83-1.83a10.33,10.33,0,0,1-6.86,2.35,12.51,12.51,0,0,1-11.42-6.34l4-3c2,2.78,4.34,4.17,7,4.17s4.08-1.31,4.08-2.87a2.82,2.82,0,0,0-.52-1.82c-.65-.91-1.26-1.17-3.13-2l-3.08-1.39c-4.47-2-6.95-4.47-6.95-8.25a7.22,7.22,0,0,1,2.65-5.86,9.6,9.6,0,0,1,6.43-2.26c4.64,0,7.94,1.83,9.9,5.43l-4,3.08c-1.47-2.21-3.3-3.3-5.47-3.3s-3.56,1-3.56,2.69.91,2.3,3.34,3.39l3.26,1.43c4.82,2.13,7.08,4.52,7.08,8.38A7.76,7.76,0,0,1,168.65,72.83Zm11.72,1.83h-5.86V53.17h5.86Zm-.26-26.75a3.94,3.94,0,0,1-5.34,0,3.62,3.62,0,0,1,0-5.16,3.94,3.94,0,0,1,5.34,0A3.64,3.64,0,0,1,180.11,47.91ZM206,72.27c0,7-4.38,10.72-11.11,10.72a15.48,15.48,0,0,1-10.55-4l3.08-4.08a11.46,11.46,0,0,0,7,2.77c3.48,0,5.73-1.73,5.73-5.07V71.44A8.59,8.59,0,0,1,193.48,74a9.79,9.79,0,0,1-7.25-3,10.52,10.52,0,0,1-2.91-7.73,10.35,10.35,0,0,1,2.91-7.68,10.15,10.15,0,0,1,7.51-3c3.08,0,5.38,1,6.9,3.17V53.17H206Zm23.84,2.39H224V62.11a3.88,3.88,0,0,0-4-4.17A3.94,3.94,0,0,0,216,62.11V74.66H210.1V53.17h5.39v1.95a8.42,8.42,0,0,1,6.21-2.43c5.07,0,8.16,3.43,8.16,8.64Z"/></svg>